<mxfile host="app.diagrams.net" modified="2024-07-15T11:04:37.126Z" agent="Mozilla/5.0 (Windows NT 10.0; Win64; x64) AppleWebKit/537.36 (KHTML, like Gecko) Chrome/126.0.0.0 Safari/537.36" etag="sn8NoyCGKRkoBDj7x-G9" version="24.6.5" type="device">
  <diagram name="ページ1" id="8tq-JacZla4qRPUmrbfa">
    <mxGraphModel dx="1434" dy="772" grid="1" gridSize="10" guides="1" tooltips="1" connect="1" arrows="1" fold="1" page="1" pageScale="1" pageWidth="827" pageHeight="1169" math="0" shadow="0">
      <root>
        <mxCell id="0" />
        <mxCell id="1" parent="0" />
        <mxCell id="iDmjeSkEDWCKGWt9WGEf-1" value="ユースケース" style="shape=umlFrame;whiteSpace=wrap;html=1;pointerEvents=0;width=90;height=40;" vertex="1" parent="1">
          <mxGeometry y="80" width="820" height="1060" as="geometry" />
        </mxCell>
        <mxCell id="iDmjeSkEDWCKGWt9WGEf-24" style="rounded=0;orthogonalLoop=1;jettySize=auto;html=1;entryX=0;entryY=0.5;entryDx=0;entryDy=0;endArrow=none;endFill=0;" edge="1" parent="1" source="iDmjeSkEDWCKGWt9WGEf-2" target="iDmjeSkEDWCKGWt9WGEf-5">
          <mxGeometry relative="1" as="geometry" />
        </mxCell>
        <mxCell id="iDmjeSkEDWCKGWt9WGEf-33" style="rounded=0;orthogonalLoop=1;jettySize=auto;html=1;entryX=0;entryY=0.5;entryDx=0;entryDy=0;endArrow=none;endFill=0;" edge="1" parent="1" source="iDmjeSkEDWCKGWt9WGEf-2" target="iDmjeSkEDWCKGWt9WGEf-25">
          <mxGeometry relative="1" as="geometry" />
        </mxCell>
        <mxCell id="iDmjeSkEDWCKGWt9WGEf-34" style="rounded=0;orthogonalLoop=1;jettySize=auto;html=1;entryX=0;entryY=0.5;entryDx=0;entryDy=0;endArrow=none;endFill=0;" edge="1" parent="1" source="iDmjeSkEDWCKGWt9WGEf-2" target="iDmjeSkEDWCKGWt9WGEf-32">
          <mxGeometry relative="1" as="geometry" />
        </mxCell>
        <mxCell id="iDmjeSkEDWCKGWt9WGEf-36" style="rounded=0;orthogonalLoop=1;jettySize=auto;html=1;entryX=0;entryY=0.5;entryDx=0;entryDy=0;endArrow=none;endFill=0;" edge="1" parent="1" source="iDmjeSkEDWCKGWt9WGEf-2" target="iDmjeSkEDWCKGWt9WGEf-35">
          <mxGeometry relative="1" as="geometry" />
        </mxCell>
        <mxCell id="iDmjeSkEDWCKGWt9WGEf-2" value="Actor" style="shape=umlActor;verticalLabelPosition=bottom;verticalAlign=top;html=1;" vertex="1" parent="1">
          <mxGeometry x="30" y="450" width="30" height="60" as="geometry" />
        </mxCell>
        <mxCell id="iDmjeSkEDWCKGWt9WGEf-4" value="ASUUserService" style="shape=umlFrame;whiteSpace=wrap;html=1;pointerEvents=0;width=100;height=30;" vertex="1" parent="1">
          <mxGeometry x="160" y="110" width="480" height="970" as="geometry" />
        </mxCell>
        <mxCell id="iDmjeSkEDWCKGWt9WGEf-8" style="rounded=0;orthogonalLoop=1;jettySize=auto;html=1;entryX=0;entryY=0.5;entryDx=0;entryDy=0;endArrow=none;endFill=0;" edge="1" parent="1" source="iDmjeSkEDWCKGWt9WGEf-5" target="iDmjeSkEDWCKGWt9WGEf-6">
          <mxGeometry relative="1" as="geometry" />
        </mxCell>
        <mxCell id="iDmjeSkEDWCKGWt9WGEf-17" value="" style="rounded=0;orthogonalLoop=1;jettySize=auto;html=1;endArrow=none;endFill=0;" edge="1" parent="1" source="iDmjeSkEDWCKGWt9WGEf-5" target="iDmjeSkEDWCKGWt9WGEf-16">
          <mxGeometry relative="1" as="geometry" />
        </mxCell>
        <mxCell id="iDmjeSkEDWCKGWt9WGEf-19" value="" style="rounded=0;orthogonalLoop=1;jettySize=auto;html=1;endArrow=none;endFill=0;" edge="1" parent="1" source="iDmjeSkEDWCKGWt9WGEf-5" target="iDmjeSkEDWCKGWt9WGEf-9">
          <mxGeometry relative="1" as="geometry" />
        </mxCell>
        <mxCell id="iDmjeSkEDWCKGWt9WGEf-21" value="" style="rounded=0;orthogonalLoop=1;jettySize=auto;html=1;endArrow=none;endFill=0;" edge="1" parent="1" source="iDmjeSkEDWCKGWt9WGEf-5" target="iDmjeSkEDWCKGWt9WGEf-20">
          <mxGeometry relative="1" as="geometry" />
        </mxCell>
        <mxCell id="iDmjeSkEDWCKGWt9WGEf-5" value="ログイン" style="ellipse;whiteSpace=wrap;html=1;" vertex="1" parent="1">
          <mxGeometry x="200" y="200" width="140" height="70" as="geometry" />
        </mxCell>
        <mxCell id="iDmjeSkEDWCKGWt9WGEf-6" value="バリデーションチェック" style="ellipse;whiteSpace=wrap;html=1;" vertex="1" parent="1">
          <mxGeometry x="400" y="120" width="140" height="70" as="geometry" />
        </mxCell>
        <mxCell id="iDmjeSkEDWCKGWt9WGEf-9" value="IP チェック" style="ellipse;whiteSpace=wrap;html=1;" vertex="1" parent="1">
          <mxGeometry x="390" y="210" width="140" height="70" as="geometry" />
        </mxCell>
        <mxCell id="iDmjeSkEDWCKGWt9WGEf-16" value="ブラックリストチェック" style="ellipse;whiteSpace=wrap;html=1;" vertex="1" parent="1">
          <mxGeometry x="400" y="300" width="140" height="70" as="geometry" />
        </mxCell>
        <mxCell id="iDmjeSkEDWCKGWt9WGEf-20" value="ログイン通知メール" style="ellipse;whiteSpace=wrap;html=1;" vertex="1" parent="1">
          <mxGeometry x="400" y="400" width="140" height="70" as="geometry" />
        </mxCell>
        <mxCell id="iDmjeSkEDWCKGWt9WGEf-27" value="" style="rounded=0;orthogonalLoop=1;jettySize=auto;html=1;endArrow=none;endFill=0;" edge="1" parent="1" source="iDmjeSkEDWCKGWt9WGEf-25" target="iDmjeSkEDWCKGWt9WGEf-26">
          <mxGeometry relative="1" as="geometry" />
        </mxCell>
        <mxCell id="iDmjeSkEDWCKGWt9WGEf-29" style="rounded=0;orthogonalLoop=1;jettySize=auto;html=1;endArrow=none;endFill=0;" edge="1" parent="1" source="iDmjeSkEDWCKGWt9WGEf-25" target="iDmjeSkEDWCKGWt9WGEf-28">
          <mxGeometry relative="1" as="geometry" />
        </mxCell>
        <mxCell id="iDmjeSkEDWCKGWt9WGEf-31" value="" style="rounded=0;orthogonalLoop=1;jettySize=auto;html=1;endArrow=none;endFill=0;" edge="1" parent="1" source="iDmjeSkEDWCKGWt9WGEf-25" target="iDmjeSkEDWCKGWt9WGEf-30">
          <mxGeometry relative="1" as="geometry" />
        </mxCell>
        <mxCell id="iDmjeSkEDWCKGWt9WGEf-25" value="登録" style="ellipse;whiteSpace=wrap;html=1;" vertex="1" parent="1">
          <mxGeometry x="190" y="610" width="140" height="70" as="geometry" />
        </mxCell>
        <mxCell id="iDmjeSkEDWCKGWt9WGEf-26" value="バリデーションチェック" style="ellipse;whiteSpace=wrap;html=1;" vertex="1" parent="1">
          <mxGeometry x="400" y="520" width="140" height="70" as="geometry" />
        </mxCell>
        <mxCell id="iDmjeSkEDWCKGWt9WGEf-28" value="重複登録は防止" style="ellipse;whiteSpace=wrap;html=1;" vertex="1" parent="1">
          <mxGeometry x="400" y="640" width="140" height="70" as="geometry" />
        </mxCell>
        <mxCell id="iDmjeSkEDWCKGWt9WGEf-30" value="メール認証" style="ellipse;whiteSpace=wrap;html=1;" vertex="1" parent="1">
          <mxGeometry x="410" y="760" width="140" height="70" as="geometry" />
        </mxCell>
        <mxCell id="iDmjeSkEDWCKGWt9WGEf-32" value="詳細情報を展示" style="ellipse;whiteSpace=wrap;html=1;" vertex="1" parent="1">
          <mxGeometry x="190" y="800" width="140" height="70" as="geometry" />
        </mxCell>
        <mxCell id="iDmjeSkEDWCKGWt9WGEf-35" value="異常処理" style="ellipse;whiteSpace=wrap;html=1;" vertex="1" parent="1">
          <mxGeometry x="190" y="960" width="140" height="70" as="geometry" />
        </mxCell>
      </root>
    </mxGraphModel>
  </diagram>
</mxfile>
